<svg width="548" height="633" viewBox="0 0 548 633" fill="none" xmlns="http://www.w3.org/2000/svg">
<path fill-rule="evenodd" clip-rule="evenodd" d="M341.687 78.4412H384.369V171.645L294.969 225.067L253.205 200.302L341.687 147.428V78.4412ZM207.394 227.677L166.692 251.999V374.447L341.687 477.951V535.137H384.369V453.607L209.374 350.103V276.215L249.158 252.442L207.394 227.677Z" fill="#00F0FF"/>
<path fill-rule="evenodd" clip-rule="evenodd" d="M209.37 78.4412H166.688V171.645L341.684 276.215V350.103L301.855 373.661L343.721 398.487L384.366 374.447V251.999L209.37 147.428V78.4412ZM275.489 438.844L233.623 414.017L166.688 453.607V535.137H209.37V477.951L275.489 438.844Z" fill="#009099"/>
<path fill-rule="evenodd" clip-rule="evenodd" d="M274.47 59.6688L52.1576 188.021V390.551L0.939453 360.997V158.45L274.47 0.5271L548 158.45V217.613L496.782 188.059V188.021L274.47 59.6688ZM0.939453 415.158V474.295L274.47 632.218L548 474.295V269.952L547.211 271.319L496.782 242.22V444.724L274.47 573.076L52.1576 444.724V444.712L0.939453 415.158Z" fill="url(#paint0_linear_1433_185)"/>
<defs>
<linearGradient id="paint0_linear_1433_185" x1="342.256" y1="525.238" x2="209.805" y2="525.238" gradientUnits="userSpaceOnUse">
<stop stop-color="#00F0FF"/>
<stop offset="1" stop-color="#009099"/>
</linearGradient>
</defs>
</svg>
